# xmcd
#
# Track frame offsets:
#	183
#	17193
#	39388
#
# Disc length: 754 seconds
# Revision: 2
# Processed by: cddbd v1.5.2PL0 Copyright (c) Steve Scherf et al.
# Submitted via: dBpowerAMP V12.0
#
DISCID=1b02f003
DTITLE=Billy Ray Cyrus - Could've Been Me [NED] [Maxi]
DYEAR=1992
DGENRE=Country*
TTITLE0=Could've Been Me (Album Version)
TTITLE1=Achy Breaky Heart (Live Version)
TTITLE2=Someday, Somewhere, Somehow (Album Version)
EXTD=
EXTT0=
EXTT1=
EXTT2=
PLAYORDER=
